<?xml version="1.0" encoding="utf-8"?>
<!-- Generator: Adobe Illustrator 18.1.1, SVG Export Plug-In . SVG Version: 6.00 Build 0)  -->
<svg version="1.1" id="Layer_1" xmlns="http://www.w3.org/2000/svg" xmlns:xlink="http://www.w3.org/1999/xlink" x="0px" y="0px"
	 viewBox="0 0 200 200" enable-background="new 0 0 200 200" xml:space="preserve">
<g>
	<g>
		<defs>
			<rect id="SVGID_1_" x="0" y="2.9" width="200" height="194.1"/>
		</defs>
		<clipPath id="SVGID_2_">
			<use xlink:href="#SVGID_1_"  overflow="visible"/>
		</clipPath>
		<path clip-path="url(#SVGID_2_)" d="M189.7,120c2.6,2.5,3.6,6.4,2.4,9.9c-12.7,38.8-49.2,66.9-92.1,66.9
			c-33.3,0-63.7-16.8-81.5-44.5c-0.8-1.2-2.2-1.8-3.6-1.4L4,154c-2.4,0.7-4.6-1.5-4-3.9l9.4-37.5l1.9-7.4c0.6-2.4,3.6-3.2,5.3-1.5
			l9.2,8.9L50,135.9c1.8,1.7,1,4.7-1.3,5.4l-12.1,3.4c14.4,20.4,37.9,32.8,63.4,32.8c34.4,0,63.7-22.5,73.9-53.6
			c2.2-6.8,10.6-9.1,15.7-4.1L189.7,120z M182.8,49.4C165.2,20.6,134.1,2.9,100,2.9C57,2.9,20.5,31,7.9,69.8
			c-1.1,3.5-0.2,7.3,2.4,9.9l0.2,0.2c5.1,5,13.5,2.7,15.7-4.1C36.3,44.7,65.5,22.2,100,22.2c25.5,0,48.9,12.3,63.4,32.7l-12.1,3.4
			c-2.4,0.7-3.1,3.7-1.3,5.4L174.1,87l9.2,8.9c1.8,1.7,4.7,0.9,5.3-1.5l1.9-7.4l9.4-37.6c0.6-2.4-1.6-4.5-4-3.9L182.8,49.4z
			 M151.9,99.8c0,28.6-23.2,51.9-51.9,51.9c-28.6,0-51.9-23.2-51.9-51.9C48.1,71.2,71.3,48,100,48C128.6,48,151.9,71.2,151.9,99.8
			L151.9,99.8z M144.4,117"/>
	</g>
</g>
</svg>
