<?xml version="1.0" encoding="utf-8"?>
<!-- Generator: Adobe Illustrator 18.1.1, SVG Export Plug-In . SVG Version: 6.00 Build 0)  -->
<svg version="1.1" id="Layer_1" xmlns="http://www.w3.org/2000/svg" xmlns:xlink="http://www.w3.org/1999/xlink" x="0px" y="0px"
	 viewBox="0 0 200 200" enable-background="new 0 0 200 200" xml:space="preserve">
<path d="M103.7,123.2l-5.4-12c5.2-3.8,9.6-8.5,13.1-13.9l12.3,4.7c2.4,0.9,5-0.3,5.9-2.7l4.5-12c0.4-1.1,0.4-2.4-0.1-3.5
	c-0.5-1.1-1.4-2-2.5-2.4l-12.3-4.7c1-6.3,0.8-12.8-0.6-19.1l12-5.4c1.1-0.5,2-1.4,2.4-2.5c0.4-1.1,0.4-2.4-0.1-3.5l-5.3-11.7
	c-1-2.3-3.7-3.3-6-2.3l-12,5.4c-3.8-5.2-8.5-9.6-13.9-13.1l4.7-12.3c0.9-2.4-0.3-5-2.7-5.9l-12-4.5c-1.1-0.4-2.4-0.4-3.5,0.1
	c-1.1,0.5-2,1.4-2.4,2.5l-4.7,12.3c-6.3-1-12.8-0.8-19.1,0.6l-5.4-12c-0.5-1.1-1.4-2-2.5-2.4c-1.1-0.4-2.4-0.4-3.5,0.1L33,8.5
	c-2.3,1-3.3,3.7-2.3,6l5.4,12C30.9,30.3,26.5,35,23,40.4l-12.3-4.7c-1.1-0.4-2.4-0.4-3.5,0.1c-1.1,0.5-2,1.4-2.4,2.5l-4.5,12
	c-0.9,2.4,0.3,5,2.6,5.9l12.3,4.7c-1,6.3-0.8,12.8,0.6,19.1l-12,5.4c-1.1,0.5-2,1.4-2.4,2.5s-0.4,2.4,0.1,3.5l5.3,11.7
	c0.5,1.1,1.4,2,2.5,2.4c1.1,0.4,2.4,0.4,3.5-0.1l12-5.4c3.8,5.2,8.5,9.6,13.9,13.1l-4.7,12.3c-0.9,2.4,0.3,5,2.7,5.9l12,4.5
	c0.5,0.2,1.1,0.3,1.6,0.3c0.6,0,1.3-0.1,1.9-0.4c1.1-0.5,2-1.4,2.4-2.5l4.7-12.3c6.3,1,12.8,0.8,19.1-0.6l5.4,12
	c0.5,1.1,1.4,2,2.5,2.4c1.1,0.4,2.4,0.4,3.5-0.1l11.7-5.3C103.7,128.2,104.7,125.5,103.7,123.2L103.7,123.2z M96.1,79.8
	c-4.5,12-16.2,20-29,20c-3.7,0-7.4-0.7-11-2c-7.7-2.9-13.9-8.7-17.3-16.2c-3.4-7.5-3.7-15.9-0.7-23.7c4.5-12,16.2-20,29-20
	c3.7,0,7.4,0.7,11,2c7.7,2.9,13.9,8.7,17.3,16.2C98.8,63.7,99.1,72.1,96.1,79.8L96.1,79.8z M198.7,143.2c-0.8-0.9-2-1.4-3.2-1.5
	l-8.6-0.4c-0.8-4.1-2.2-8-4.2-11.6l6.3-5.8c1.9-1.7,2-4.6,0.3-6.5l-6.3-6.9c-0.8-0.9-2-1.4-3.2-1.5c-1.2,0-2.4,0.4-3.3,1.2l-6.3,5.8
	c-3.4-2.3-7.2-4.1-11.2-5.2l0.4-8.6c0.1-2.5-1.9-4.6-4.4-4.8l-9.3-0.4c-2.5-0.1-4.6,1.8-4.8,4.4l-0.4,8.6c-4.1,0.8-8,2.2-11.6,4.2
	l-5.8-6.3c-0.8-0.9-2-1.4-3.2-1.5c-1.2,0-2.4,0.4-3.3,1.2l-6.9,6.3c-1.9,1.7-2,4.6-0.3,6.5l5.8,6.3c-2.3,3.4-4.1,7.2-5.2,11.2
	l-8.6-0.4c-2.5-0.1-4.7,1.8-4.8,4.4l-0.4,9.3c0,1.2,0.4,2.4,1.2,3.3c0.8,0.9,2,1.4,3.2,1.5l8.6,0.4c0.8,4.1,2.2,8,4.2,11.6l-6.3,5.8
	c-0.9,0.8-1.4,2-1.5,3.2c-0.1,1.2,0.4,2.4,1.2,3.3l6.3,6.9c0.8,0.9,2,1.4,3.2,1.5c1.2,0,2.4-0.4,3.3-1.2l6.3-5.8
	c3.4,2.3,7.2,4.1,11.2,5.2l-0.4,8.6c-0.1,2.5,1.8,4.6,4.4,4.8l9.3,0.4c0.1,0,0.1,0,0.2,0c1.1,0,2.2-0.4,3.1-1.2
	c0.9-0.8,1.4-2,1.5-3.2l0.4-8.6c4.1-0.8,8-2.2,11.6-4.2l5.8,6.3c0.8,0.9,2,1.4,3.2,1.5c1.2,0.1,2.4-0.4,3.3-1.2l6.9-6.3
	c1.9-1.7,2-4.6,0.3-6.4l-5.8-6.3c2.3-3.4,4.1-7.2,5.2-11.2l8.6,0.4c2.5,0.1,4.6-1.8,4.8-4.4l0.4-9.3
	C199.9,145.2,199.5,144.1,198.7,143.2L198.7,143.2z M147.2,170.2c-11.7-0.5-20.9-10.5-20.4-22.2c0.5-11.4,9.8-20.4,21.2-20.4
	c0.3,0,0.6,0,0.9,0c11.7,0.5,20.9,10.5,20.4,22.2C168.9,161.5,159.1,170.6,147.2,170.2L147.2,170.2z M147.2,170.2"/>
</svg>
