<svg xmlns="http://www.w3.org/2000/svg" xmlns:xlink="http://www.w3.org/1999/xlink" version="1.1" id="Capa_1" x="0px" y="0px" viewBox="-55 178.9 485 485" style="enable-background:new -55 178.9 485 485;" xml:space="preserve" class="svg replaced-svg">
<path class="st0" d="M1.8,546.4c15.4-3.8,31.5-6.4,48-6.4c7.2,0,14.4,0.5,21.3,1.5c11.4,1.7,22.7,3.8,33.5,5.8  c23,4.3,44.7,8.4,67.2,8.4c11.3,0,21.8-1,32.1-3.1c10.7-2.2,21.5-5.1,32.9-8.1c27.1-7.3,55.3-14.9,83.5-12.3  c22.8,2.1,44.3,7,64.6,13l27.2-92.7c2.2-8.7-3.2-15.8-12.2-15.8h-42H23.3h-37.9c-9,0-15.2,7.2-13.8,16.1L1.8,546.4z"></path>
<rect x="81.5" y="388" class="st0" width="59.6" height="35.6"></rect>
<rect x="154.7" y="388" class="st0" width="59.6" height="35.6"></rect>
<rect x="8.4" y="388" class="st0" width="59.6" height="35.6"></rect>
<rect x="81.5" y="339.3" class="st0" width="59.6" height="35.6"></rect>
<rect x="8.4" y="339.3" class="st0" width="59.6" height="35.6"></rect>
<rect x="154.7" y="339.3" class="st0" width="59.6" height="35.6"></rect>
<rect x="81.5" y="290.5" class="st0" width="59.6" height="35.6"></rect>
<rect x="8.4" y="290.5" class="st0" width="59.6" height="35.6"></rect>
<path class="st0" d="M257.6,379.9h29.8h8.1v8.1v35.6H385v-85.7h18.3v-20.3H385V281h-36.6v-55.5h-19V281h-71.8v36.6h-18.3v20.3h18.3  L257.6,379.9L257.6,379.9z M271.9,309.5v-12.2c0-2.2,1.8-4.1,4.1-4.1h12.2c2.2,0,4.1,1.8,4.1,4.1v12.2c0,2.2-1.8,4.1-4.1,4.1h-12.2  C273.7,313.5,271.9,311.7,271.9,309.5z M353.1,309.5v-12.2c0-2.2,1.8-4.1,4.1-4.1h12.2c2.2,0,4.1,1.8,4.1,4.1v12.2  c0,2.2-1.8,4.1-4.1,4.1h-12.2C355,313.5,353.1,311.7,353.1,309.5z M312.5,309.5v-12.2c0-2.2,1.8-4.1,4.1-4.1h12.2  c0.2,0,0.4,0.1,0.7,0.1c1.9,0.3,3.4,1.9,3.4,3.9v12.2c0,2-1.5,3.6-3.4,3.9c-0.2,0-0.4,0.1-0.7,0.1h-12.2  C314.3,313.5,312.5,311.7,312.5,309.5z"></path>
<polygon class="st0" points="287.4,423.6 287.4,388 257.6,388 227.8,388 227.8,423.6 257.6,423.6 "></polygon>
<path class="st0" d="M-38,617.3c2.2,0,4.5-0.4,6.9-1.3c28.7-9.9,54.8-18.1,83.7-18.1c10.2,0,20.1,1,30.3,3.1  c32.6,6.7,66,13.5,102.1,11.1c27.4-1.8,54.9-9,81.4-15.8c6.6-1.7,13.2-3.4,19.8-5c8-2,16.6-3,25.5-3c29.4,0,59,10.8,85.2,20.3  l9.3,3.4c2.5,0.9,4.8,1.3,7,1.3c9.3,0,14.9-8.2,16.3-16.3c1.5-8.5-1.2-20.1-13.7-24.6c-11.5-4.1-23.3-8.1-35.6-11.8  c-19.5-5.8-40-10.4-61.5-12.4c-25.5-2.3-52,4.8-77.7,11.8c-11.2,3-22.7,6.1-33.9,8.4c-11.4,2.3-23,3.4-35.4,3.4  c-24,0-47.5-4.4-70.2-8.6c-10.7-2-21.8-4.1-32.9-5.7c-6.1-0.9-12.5-1.4-19-1.4c-14.5,0-28.9,2.3-42.9,5.7  c-16.7,4-32.8,9.5-47.8,14.7c-12.4,4.3-15.2,15.6-13.8,24.1C-53.3,609-47.6,617.3-38,617.3z"></path>
</svg>