<?xml version="1.0" encoding="utf-8"?>
<!-- Generator: Adobe Illustrator 18.1.1, SVG Export Plug-In . SVG Version: 6.00 Build 0)  -->
<svg version="1.1" id="Layer_1" xmlns="http://www.w3.org/2000/svg" xmlns:xlink="http://www.w3.org/1999/xlink" x="0px" y="0px"
	 viewBox="0 0 200 200" enable-background="new 0 0 200 200" xml:space="preserve">
<g>
	<g>
		<defs>
			<rect id="SVGID_1_" x="0.4" y="0" width="203" height="203.7"/>
		</defs>
		<clipPath id="SVGID_2_">
			<use xlink:href="#SVGID_1_"  overflow="visible"/>
		</clipPath>
		<path clip-path="url(#SVGID_2_)" d="M83,144.4L83,144.4C83.1,144.4,83.2,144.5,83,144.4L83,144.4z M82.7,144.1
			c-0.3,0,0.1,0.2,0.3,0.3C82.9,144.2,82.8,144.1,82.7,144.1L82.7,144.1z M105.3,91.2c0,0,0,0,0.1,0.1
			C105.4,91.2,105.3,91.2,105.3,91.2L105.3,91.2z M136.5,139c0.7,0.1,1.7,0,2.3,0h0.2c0.7,0,1.3-0.3,2.4-0.9l0.1,0
			c-0.9-0.1-1.8-0.2-2.7-0.3c-0.9-0.1-1.8-0.3-2.6-0.4c0.6,0.5,1.1,0.9,0.9,1C136.6,138.6,135.7,139,136.5,139L136.5,139z
			 M132.1,94.9l-0.1-0.1c-0.3,1.4-0.7,2.8-1,4.2c0.2,0.2,0.1,0.2,1.1,0.2c1.4,0.1,0.4,0.1,1.5,0.1c1.1,0,1.2,0.1,1.4-0.3
			c0.2-0.4,0.2,0.2,0.2-0.9c0-1.2-0.5-1.7-0.9-2C133.9,95.9,133.2,95.4,132.1,94.9L132.1,94.9z M126,117.5l-0.3,1.1l0.5-0.1
			c0,0,0.1,0.3,0.3,0.8c0.1-0.3,0.2-0.5,0.2-0.5s0-0.3-0.2-1C126.4,117.7,126.2,117.6,126,117.5L126,117.5z M129.1,106.9h-0.1
			l-0.2,0.6c-0.6,2.3-1.3,4.6-1.9,7c0.5,0,1,0.1,1,0.1s0.6-0.3,0.8-1c0.2-0.8,0.6-1.6,0.6-1.6s0.1,0,0.4,0.1
			c0.2-0.3,0.4-0.7,0.4-1.3c0-1.1-0.5-1.3-0.5-1.9c0-0.6,0.2-2,0.2-2L129.1,106.9z M144.2,138.4L144.2,138.4c-0.5,1.2-1,2.5-1.3,3
			c-0.7,1.1-2.5,3.5-3.5,4.4c-0.1,0.1-0.3,0.2-0.5,0.4c-1.5,1.2-4.9,3.8-5.7,4.4c-0.9,0.7-5,4.2-5.5,4.6c-0.5,0.4-1.3,1.7-1.3,1.7
			l-0.7,1l0.3,0.8c0,0-0.6,0.7-0.8,1.4c0,0.1-0.1,0.2-0.2,0.3c-5.4,2.2-11,3.7-16.7,4.4c-1.1,2.3-2.2,4.5-3.3,6.7
			c10.7-0.7,21.4-3.8,31.2-9.5c9.9-5.7,17.9-13.4,23.8-22.3c-2.4-0.1-4.8-0.3-7.2-0.4C149.9,139,147.1,138.7,144.2,138.4
			L144.2,138.4z M199.9,126.5c-3.2,11.9-37.7,13.3-81.6,4.5c-14.4,42.4-32.9,71.6-44.7,68.4c-7.5-2-10.8-16.5-10-37.9
			c0.3,0.1,0.5,0.3,0.8,0.4c-10.5-6.1-19.7-14.9-26.2-26.2c-5.7-9.9-8.8-20.6-9.5-31.2c2.1,1.1,4.2,2.1,6.4,3.2
			c7.7,3.7,15.7,7,23.9,10h0l0,0.4l-1.2,2.1l-1.1,0.7l0.3,0.5l0.2,1h-0.6v2.2c0,0.8,1.6,1.1,1.6,1.1l-0.5,0.3c0,0,0.1,0.5,0.6,1.3
			c0.5,0.8,0.9,1.5,1.1,2.2c0.2,0.7,0.5,2.7,0.5,2.7s1.3,2.2,1.9,3c0.6,0.9,1.8,2.1,2.3,3.1c0.5,1,1.6,0.5,3.6,1
			c2.1,0.5,3,1.2,3,1.2s1.1,0.9,1.8,1.3c0.7,0.4,1.4,0.4,3.3,0.4c1.8,0,0.6,0.1,2.8,0.4l0.3,0c2.6,0.4,0.5,0.2,3,1.3l0.1,0
			c0.6,0.3,0.9,0.4,1.1,0.5c0.2,0.5,0.1,1.3,0.2,1.7c0.1,0.5,0.8-0.1,1.3-0.1c0.4,0,0.5,0.3,0.9,0.6c0.1,0.1,0.3,0.2,0.5,0.2
			c0.9,0.3,1.1-0.3,1.1-0.3l1,1.2l0.8,1.1l-0.8,1.9l-0.7,0.7c0,0,0.1-0.9,0-1.6c-0.1-0.7-0.7,0.3-0.7,0.3l-0.6,1.9l2.2,2.1l0.7,0.6
			l1.4,1.3l0.1,0.3l0.8,2.3l-0.1,0.8l0.5,1.3c0,0-0.6,0.3-1.2,0.4c-0.2,0-0.4,0.1-0.6,0.1c-0.3,0-0.6,0.3-0.9,0.7
			c-0.3,0.4-0.5,0.8-0.5,0.8s0.2,0.4,0.5,0.9c0.2,0.3,0.5,0.6,0.7,0.8c0.1,0.1,0.3,0.2,0.4,0.3c0.1,0,0.2,0,0.3,0.1
			c0,0,0,0.1-0.1,0.1l-0.3,0.5c-0.8,1.5-1.9,3.3-3.2,5.2c-7.2-1.4-14.2-3.9-20.7-7.4c0,0,0,0,0,0c0.2,12.9,2.6,21.3,7.4,22.6
			c9,2.4,23.5-21.5,35.6-56.5c-5.1-1.1-10.2-2.4-15.4-3.8c-55-14.7-96.6-38.1-92.8-52.1c2-7.5,16.5-10.8,37.9-10
			c-0.3,0.4-0.5,0.9-0.7,1.3c6.1-10.8,15-20.1,26.5-26.7C75.8,31,88.3,28,100.6,28c-0.4,0-0.9,0-1.3,0C109.4,9.1,119.5-1.8,127,0.2
			c14,3.8,13.5,51.4-1.3,106.4c-1.4,5.2-2.9,10.3-4.4,15.2c36.3,7.1,64.3,6.4,66.7-2.5c1.3-4.7-4.8-11-15.9-17.7v-0.1
			c-0.2,7.4-1.5,14.8-3.9,21.7c-2.3,0.1-4.4,0.1-6.1,0.1c-1.4,0-2.5,0-3.1,0c-1.8-0.1-3.7-0.2-5.6-0.3c0.3-1.2,0.6-2,0.7-2.5
			c0.1-0.6,0.4-1.5,0.4-1.5l-2.2-0.5l-0.3-1.5l-0.9-0.2l-0.8,1.6c0,0-0.7,1-1.5,1.4c-0.8,0.4-1.8,0.5-1.8,0.5l0.2-1.2
			c-0.4-0.2-1.3,0.2-1.3,0.2l-0.1-1.1c0,0-0.5-1.1-0.9-1.2c-0.4-0.1-1.1-1-1.1-1s-0.3-0.3-0.5-1c0,0,0,0-0.1-0.1l0.1-0.6
			c0,0,0.8-0.9,1.5-1.7c0.7-0.8,0.9,0.8,1.6,1.3c0.7,0.6,0.5,1.5,0.5,1.5s0.4,0.2,1,0.2c0.6,0,0.8,0.4,0.8,0.4l1.1,0.5l1.1-1.3
			c0,0,0.2-0.8,1-0.8c0.8,0,0.1,1,0.1,1.6c0,0.6,0.6,0,2.1-0.7c1.6-0.7,0.9-0.6,2.4-1.3c1.5-0.8,0.7-0.6,1.2-1c0.6-0.5,1-0.9,1-0.9
			l1.2,0.8l1.4-0.2l1.4-0.8v1c0,0-0.9,1.1-0.3,1.9c0.6,0.8,0.7,0.6,0.3,1.6c-0.3,1-0.1,1,0,1.6c0.1,0.4,0.1,0.5,0.1,0.7
			c5.1-16.8,3.6-35.5-5.9-51.8c-4.5-7.8-10.4-14.4-17.2-19.5c0.2-2.5,0.3-5,0.4-7.5c8.9,5.9,16.6,14,22.3,23.8
			c6.5,11.3,9.6,23.7,9.6,36c0-0.4,0-0.7,0-1C191,108.9,201.9,119,199.9,126.5L199.9,126.5z M113.8,48.4c0,0,0.7-0.4,1.1-0.5
			c0.3-0.2,0-0.2-0.4-0.5c-0.3-0.3-0.8,0.2-0.8,0.2s-0.2,0.2-0.4,0.7c0,0,0,0.1-0.1,0.1c-0.2,0.2-0.4-0.4-0.5-0.7
			c0-0.3-1.4-0.1-1.3-0.1c0.1,0,0.3,0.7,0.3,0.7s0.1,0.6,0.1,0.9c0,0.3,0,0.7,0.2,1c0.2,0.3,0.8,0.8,0.8,0.8l0.4-0.3l0.2-0.1l0.6-1
			l0.5-0.5L113.8,48.4z M105.8,43.9c0,0,0.1-0.7,0.5-0.6c0.4,0.1,0.8-1,0.8-1s-0.3-0.6-0.7-0.6c-0.4,0-1.3,0.1-1.3,0.1l-0.2-0.5
			c0,0-0.5-0.1-1.1,0.2c-0.6,0.2-0.8-0.3-0.8-0.3l-0.1-1l-0.9,0.2l-0.6-0.6c0,0-0.2-0.5,0.2-0.5c0.4,0,1,0.1,1,0.1l0.8-0.6l-0.3-0.6
			l0.5-0.6c0,0-1.1-0.6-1.3-0.2c-0.2,0.4-1.1,0.7-1.1,0.7s0.1-0.2-0.4-0.9c-0.5-0.6,0.2-1-0.8-0.7c-0.6,0.1-1.1,0.4-1.4,0.7
			c-0.2,0.2-0.3,0.3-0.3,0.3s-1.1,0.2-1.2,0.6c-0.1,0.4,1.3,0.6,1.3,0.6s0.1-0.1,0.2-0.2c0.2-0.2,0.6-0.5,0.9-0.3
			c0.4,0.4,0.7,0.9,0.7,0.9l-1.5,0.8L98.4,40l-0.7-0.6h-1.5l-0.7,0.3L94,39.9c0,0,0.2,0.7,0.2,1.1c0,0.4-0.6,0.8-0.6,0.8l-0.9-0.1
			h-0.1l-0.9,0.6c0,0-1,0.1-1.3,0.4c-0.1,0-0.1,0.1-0.2,0.1c-0.4,0.1-0.7-0.2-0.7,0.4c0,0.6,0.1,0.9-0.4,1c-0.1,0-0.2,0-0.4,0.1
			c-0.5,0.1-1.1,0.2-1.1,0.2s-0.5,0.2-0.9,0.6c-0.4,0.4-1.3,0.6-1.3,0.6l-0.1,0l-1.5-0.3l-2.1,0.9l0,0.1l-0.4,1L80,47.7
			c0,0-1.1,0.6-1.2,1c0,0.2-0.3,0.4-0.5,0.5c-0.2,0.1-0.3,0.2-0.3,0.2s-0.8,0.3-1.2,0.6c-0.4,0.3-0.9,1-0.9,1l-0.3,0.7l0.6,0.8
			l-1.3,0.2l0.2,0.6c0.6,0.6,1,1,1.4,0.6c0.4-0.3,0.2-0.5,0.6-0.7c0.3-0.1,0.8-0.3,1.2-0.4c0.3-0.1,0.6-0.2,0.8-0.3
			c0.4-0.2,1-0.7,1.5-0.7c0.5,0,1-0.1,1-0.1l0.2-0.1l1.1-0.9l1.3,0.6l1-0.2c0,0,0,0.3,0.2,0.5c0.1,0.1,0.2,0.1,0.3,0.2
			c0.5,0.2,1.2,0.2,1.2,0.2s0.4-0.6,0.9-0.6h1.4l0.2-0.7l0.9,0.4l0.1,0.1l0.7,0.6c0,0-0.3,0.1,0.5,0.4c0.5,0.2,0.9,0.1,1.2,0
			c0.2-0.1,0.3-0.1,0.3-0.1l1.4,0.3c0,0,0.1-1.3-0.3-1.3c-0.4,0-1.2-0.4-1.2-0.4l0.9-0.3l1-0.2l0.2,1l1.5-0.5l-0.2-0.9l0.1-1.4
			l1.4,0.2l0.1,1c0,0,0.3,0.1,0.6,0.2c0.3,0.1,0.7,0.1,0.7-0.2c0-0.6-0.3-1,0.1-1c0.4,0,1.2-0.2,1.2-0.2l0.4-0.6l0.6-1.3l0.6,1
			l0.9-0.5l-0.2-0.8l1.9-0.9c0,0,1.1-0.2,1.6-0.2c0.5,0,0.6-0.2,0.6-0.2s0.3-0.6-0.2-0.6C106.2,44.3,105.8,43.9,105.8,43.9
			L105.8,43.9z M86.8,74.6L86,75l1.8,0.9l0.9,0.1l0.7,0c0,0,0.5-0.8,0.5-1.6c0-0.4,0.1-0.5,0.3-0.7c0.2-0.1,0.4-0.2,0.8-0.5
			c0.6-0.5,0.5-0.6,0.3-1.1c-0.1-0.3-0.8-0.3-1.1-0.3c-0.1,0-0.2,0-0.2,0l-1.3,0.7l-0.1,0L88,71.9l-0.9,0.2L86.3,73
			c-0.1-0.1,0.6,0.1,0.6,0.1s0.2-0.1,0.9,0c0.6,0.1-0.2,0.6-0.2,0.6L86.3,74L86.8,74.6z M89.8,56.1l-1.1,0.1h0c0,0-0.2,1.1,0,1.8
			c0,0,0,0.1,0,0.1c0.2,0.4,0.7,0.9,1.5,1c0.3,0,0.7,0,1.1-0.1c0.7-0.2,0.9-0.2,1-0.2l-0.1,0c0,0,0.1,0,0.1,0l0.5-0.2l0.6-0.3
			c0,0,1-0.6,1-1.2c0-0.5-0.9-0.4-1.6-0.4h-0.1c-0.7,0-0.6-0.1-0.9-0.9c-0.3-0.8-0.3,0.5-0.3,0.5s-0.3-0.1-0.6-0.8
			c-0.3-0.7-0.4-1.3-0.4-1.3l-0.3,0.2L89.4,55l0.2,0.5L89.8,56.1z M89,78.8c0,0,0.3,0.4,0.8,1c0.2,0.3,0.3,0.2,0.4,0
			c0.1-0.2,0.2-0.6,0.5-0.6c0.4,0,0.1,0.6,0.5,0.5c0.5-0.1,1.5-0.1,1.5-0.1l0,0l0.7,0.8c0,0,0.8-0.4,0.9-0.8
			c0.1-0.4,0.1-0.4,0.7-0.4c0.6,0,0.4-0.1,1.2-0.7c0.8-0.6-0.2-1.2-0.9-1.5c-0.6-0.3-0.1-0.9-0.1-0.9l0.1-1.1c0,0,0-0.4-0.1-0.9
			c-0.1-0.6-0.2-1-0.3-1.5c-0.1-0.6-0.6-0.4-0.6-0.4v-0.7c0,0,1.2,0,1.6-0.2c0.4-0.2,0-1,0-1S95,70,94.3,69.8
			c-0.7-0.2-0.2-0.4,0.9-0.5c1.2-0.1,0.2-0.6,0.2-0.6l-0.9-0.6c0,0-0.5,0.6-1.3,1c-0.2,0.1-0.3,0.1-0.4,0.2c-0.3,0.3-0.1,0.6-0.4,1
			v0.6l0.4,0.6l0.2,0.3c0,0-0.1,0.3-0.2,0.7c-0.1,0.2-0.2,0.4-0.3,0.5c-0.3,0.5,0.2,1,0.2,1s0,1-0.2,1.6c-0.2,0.6-1.4-0.5-1.4-0.5
			l-0.2,1.4h-1.1l0.2,0.7l0.3,0.2l0.5,0.3l0.5,0.7l-0.9-0.3L89.8,78L89,78.8z M76.6,43.1l-1.4,1.4c0,0,1.2,0.2,1.6,0.2
			c0.2,0,0.9-0.5,1.5-0.9c0.5-0.3,1-0.7,1.3-0.9c0.9-0.5,1.2-0.4,1.2-0.4l0.3,0.6l-1.9,1.1l2.2-0.3l0.3-0.3l0.9-0.8l0.9-1l1.3,0.1
			l0.5-0.2l1.2-0.4c0,0,0.9-0.6,1.3-1.4c0.3-0.6,0.5-0.2,0.9-0.2c0.1,0,0.2,0,0.4,0c0.6-0.2,0.3-0.7,0.3-1.3c0-0.3,0.4-0.3,0.8-0.3
			c0.5,0,1,0,1.3-0.1c0.5-0.3-0.4-0.9-1-1.1l-0.2-0.1c-0.5-0.1-0.8-0.2-0.8-0.7c0-0.3-0.3-0.4-0.7-0.4c-0.3,0-0.7,0.1-0.9,0.3
			c-0.5,0.3-1.4,0.4-1.1-0.2c0-0.1,0.1-0.1,0.2-0.2c-2.5,0.5-4.9,1.2-7.3,2c0.5,0,0.8,0,1.2,0c0.5,0-0.5,0.6-0.5,0.6
			s-1.4,0.5-1.8,0.8l0,0C78,39.5,78.1,40,78.1,40h0.2c0.3,0,0.7,0,1-0.1c0.4-0.1,0.7-0.2,1.7-0.9c0.3-0.2,0.5-0.3,0.7-0.4
			c0.3-0.1,0.3-0.1,0.7-0.3c0.6-0.3,0.2,0.9,0.2,0.9l1.5-0.6l1.2-0.1l0.4,0l0.5-0.9l-0.9-0.2l-0.5-0.1l0.5-0.5h0c0.2,0,1.6,0,2,0.1
			c0.5,0.1,0,0.6,0,0.6l-0.2,0.6l-0.6,1c0,0-0.7,0.1-1.3,0.1h0c-0.5,0-1.1,0.6-1.1,0.6l-1.1,0.8h-1.6l-0.2,0.9L80,41.6
			c0,0-0.2-0.4-0.2-1c-0.1-0.6-0.6,0-0.6,0s-0.2,0.9-0.8,1.3c-0.1,0.1-0.2,0.1-0.4,0.2C77.2,42.3,76.6,43.1,76.6,43.1L76.6,43.1z
			 M93.9,34.7c-0.7,0.1-1.4,0.1-2,0.2c0.1,0,0.2,0.1,0.4,0.1c0.5,0.1,0.1,0.2,0.1,0.6c0,0.3,0.1,0.4,0.5,0.4c0.2,0,0.5,0.1,0.9,0.1
			c1.1,0.2,0.4-0.3,0.2-1.3C93.9,34.8,93.9,34.8,93.9,34.7L93.9,34.7z M89.4,35.3c0.2,0.1,0.2,0.3,0.2,0.3s0.1-0.2,0.2-0.4
			C89.6,35.3,89.5,35.3,89.4,35.3L89.4,35.3z M98.7,34.4c-0.1,0.2-0.2,0.4-0.1,0.6c0.1,0.7,0.2,0,0.7-0.2c0.3-0.1,0.3-0.2,0.4-0.5
			C99.3,34.4,99,34.4,98.7,34.4L98.7,34.4z M52.2,55.4l1,0.1l1.3-0.8l1.3,0.4L55,55.4c0,0-0.7,1-0.9,1.5c-0.2,0.5,1.9,0.4,1.9,0.4
			s0.6-1.5,0.6-2.1c0-0.6,1.7-1,1.7-1l0.5-1.3l0.8,0.5c0,0,0.5-0.9,0.4-1.3c-0.1-0.4-1.5-0.5-1.5-0.5l1.4-0.7l1.4,0.4L61,54.1h1.4
			l0.3,0.5c0,0-2,1.1-2.4,1.1c-0.4,0-1.3,1-1.3,1l-0.8,0.9c0,0,0.3,0.5,0.9,0.6c0.7,0.2,0.7,0.5,0.7,0.5s0.9-0.3,0.9-0.8
			c0-0.5-0.3-0.6-0.3-0.6s0.7-0.8,1.2-1.4c0.5-0.6,3-1.7,3.5-2.2c0.5-0.6,0.2-1,0.2-1l1.2-0.7c0,0,0.3-1.5,0.5-1.9
			c0.2-0.4,1.8-1.2,3-2.1c1.2-0.9,1.4-1,2.9-1.3c1.6-0.4,0.5-0.6,0.4-1c-0.1-0.5-1.4,0.6-1.4,0.6L70,45.9c0,0,0.8,0,1.6-0.6
			c0.8-0.6,0.6-0.2,1.2-0.4c0.5-0.2,0.4-0.5,0.4-0.5h0.9c0,0,0.7-0.7,1.1-1.3c0.4-0.6,1.3-1.8,1.3-1.8s-2,1.1-2.4,1.3
			c-0.4,0.2-1-0.2-1.5-0.2s-1.2,0.8-2,1.1c-0.8,0.3-1.7,0.8-1.7,0.8L67.7,44l-1,0.4l-2.3,1c0,0,0.4-0.3,1.4-0.9
			c0.9-0.5,1.9-1.1,1.9-1.1l1.5-0.4l0.1-0.8c-0.6,0.3-1.2,0.6-1.8,1C61.7,46.5,56.6,50.7,52.2,55.4L52.2,55.4z M111.9,119.9
			c1.6-5.1,3.1-10.3,4.6-15.7c12.8-47.9,14.3-89,3.3-92c-4.7-1.3-11,4.8-17.7,15.9h-0.2c7.5,0.2,14.8,1.5,21.8,3.9
			c0.1,2.3,0.1,4.4,0.1,6.1c0,1.4,0,2.5,0,3.1c-0.2,6-0.8,12.2-1.6,18.4c-0.3-0.1-0.6-0.2-0.9-0.2c-0.9-0.1-0.9,0-0.9,0
			c0,0-0.7-0.6-1-1c-0.3-0.5-0.8-0.8-1.8-1.1c-1-0.3-0.9,0.4-0.9,0.4s-0.9,0.7-2.1,0.5c-1.1-0.1-1.4,1.2-1.5,1.2v0l-0.8,0.7
			c0,0-0.5,0.8-1,0.8c-0.5,0-0.9,0.1-0.9,0.1s-0.3,1-0.3,1.5c0,0.5-0.5,0.6-0.5,0.6s-0.7,0.1-1.1,0.3c-0.5,0.2-0.9,0.5-1.4,0.7
			c-0.5,0.3-0.3,0.5-1.2,1c-0.9,0.5-1.3,0.7-1.3,0.7l-1.2,0.3l0.7,0.7l-1,0.2c0,0-0.1,0.6,0.1,1.1c0.1,0.5,1.1,0.5,1.1,0.5
			s-0.6,0.5-1.4,0.9c-0.8,0.3-0.8,0.5-0.7,0.8c0.1,0.3,0.5,1.1,1.8,1.4c1.3,0.3,0.4-0.1,1-0.4c0.6-0.3,1.2-0.5,1.2-0.5
			s0.8,1.3,0.8,1.9c0,0.6-0.2,1.7-0.1,2.1c0.1,0.4,0.7-0.1,0.7-0.1l-0.6,0.7c0,0,0.1,1.2,0.1,1.5c0,0.3,1.2,0.1,1.2-0.2
			c0-0.3,0.6-0.9,1.6-0.9c1-0.1,0.9-0.2,0.9-1c0-0.8,0.2-1.8,0.2-1.8l1.1-0.3c0,0,0.6-0.5,1-0.9c0.1-0.1,0.2-0.2,0.3-0.3
			c0.1-0.2,0-0.4-0.3-0.6c-0.2-0.2-0.4-0.3-0.6-0.5c-0.3-0.3-0.5-1.4-0.5-2c0-0.7,0-0.4,0.1-0.8c0.1-0.4,0.6-0.5,1-0.6
			c0.1,0,0.1,0,0.1,0c0.5-0.1,1.1-0.9,1.9-1.3c0.9-0.4-0.5-0.5-0.5-0.5s0.1-0.7,0.3-1.3c0.1-0.6,1.8,0.2,1.8,0.2l0.7,0.8l-0.8,0.6
			l-0.9,1.4l-1.3,1.7l1.1,2.7c0,0,0.9,0.5,1.5,0.4c0.6-0.1,1.3-0.4,1.6-0.7c0.2-0.2,1-0.4,1.9-0.6l-0.3,1.8
			c-0.3,0.1-0.6-0.1-1.4-0.1c-1,0-1.3,0.5-2.2,0.6c-0.9,0.1-0.4,0.7-0.4,1.2c0,0.5,1.3,1,1.3,1l-1,0.7c0,0-0.5-1-1.4-0.9
			c-0.9,0.1-0.6,1.3-1.1,1.8c-0.6,0.5,0.4,1.9,0.4,1.9s-0.7,0.1-1.3,0.4c-0.1,0.1-0.1,0.1-0.2,0.1c-0.7,0.5-0.8,0.1-0.8,0.1
			s-0.4-0.6-0.8-0.6c-0.5,0-1.1,0.7-1.6,0.9c-0.5,0.2-2,0-2,0l-1-1.1l-0.9,0.8c0,0-0.7-0.2-1.2-0.7c-0.5-0.6,0-0.5-0.1-0.9
			c-0.1-0.5-0.3-0.5-0.3-0.5l0.5-0.8L106,75c0,0,0.3-1.7-0.3-2.4c-0.6-0.8-0.6,0.7-0.6,0.7l-1.9,1.2l0.1,2.5l-0.4,1.1l-0.7-0.2
			l-0.5,0.6c0,0-0.5-0.3-1.2-0.6c-0.7-0.3-2,0.9-2,0.9l-0.2,0.4l-0.3,0.7l-1-0.2l-0.6,0.6h-1.1c-0.5,0-0.2,0.8-0.2,0.8
			s-0.3,0.4-0.7,0.5l-0.2-0.2c-0.5-0.1-0.7,0-1,0.3c-0.1,0.1-0.4,0.2-0.6,0.3c-0.3,0.1-0.5,0.1-0.5,0.1L91.8,81c0,0-0.3-0.6-0.7-0.1
			c-0.3,0.5-0.2,0.8-0.2,0.8l0.1,0.8l-0.7,0.1l-0.2-0.1l-0.3-0.1l-1.2-0.7l-0.2-0.1c0,0-0.8-0.1-0.7,0.4c0.1,0.6,0.8,1.2,0.8,1.5
			c0,0,0,0.1,0,0.1c0.2,0.2,1.2,0.2,1.2,0.6c0,0.5-0.6,1-0.6,1s0.5,0.4,0.5,1c0,0.6-0.1,1.5-0.3,1.9c-0.1,0.4-0.5,0.3-0.6,0.7
			c0,0.1-0.1,0.2-0.2,0.3c-0.2,0.3-0.5,0.7-0.5,0.7s-1,0.3-1.4,0.1c-0.3-0.1-0.6-0.6-1.2-0.8c-0.1,0-0.3,0-0.3,0
			c-0.3,0-0.3,0.2-0.9-0.3c-0.8-0.5-1.1-0.7-1.6-0.9c-0.5-0.2-0.8-0.7-0.8-0.7s-0.1-0.1-0.2-0.1c-0.2-0.1-0.6-0.3-0.8-0.3
			c-0.3,0-0.9,0.6-0.9,0.6s0.1,0.5,0,1.2c-0.1,0.7,0.1,1-0.3,1.3c-0.4,0.3-0.5,0.1-0.5,0.6c-0.1,0.5,0.3,0.3-0.3,0.8
			c-0.5,0.5-0.3,0.5-0.6,0.7c0,0-0.1,0-0.1,0.1c-0.6,0.3-0.8,0.3-1.1,0.8c-0.3,0.5-0.5,1.2-0.5,1.6c0,0.5,1.5,2.2,1.5,2.2
			s0.1,0,0.2,0.1c0.3,0.1,0.6,0.2,0.6,0.6c0,0.5-0.5,0.7,0,1c0.5,0.3,0.3,0.4,0.6,0.6c0.2,0.1,1.2,0.3,2.2,0.5
			c1.1,0.2,2.2,0.4,2.2,0.4l0.8-0.6H86l0.3-1.2l1-0.1l0.1-1.1c0,0-0.1-1.1,0.2-1.1c0.2,0,0.7-0.3,1.1-0.6c0.5-0.3,0.9-0.6,0.9-0.6
			s0.3,0.1,0.6,0.1c0.5,0.1,1.2,0.1,1.4,0c0.3-0.3,1.1-1.4,1.1-1.4s-0.2-0.9,0-1.2c0-0.1,0.1-0.2,0.2-0.2c0.5,0,1.8,0.1,2.2,0.5
			c0.4,0.4,1.4,1,1.8,0.9c0.4,0,0.9-0.4,1.3-0.7l0.2-0.1c0.1-0.1,0.5-0.4,1-0.7c0,0,0,0,0,0s0.9,0.1,1.2,0.6
			c0.3,0.5,0.4,1.4,0.3,1.9c-0.1,0.6,0.9,1,1.2,1.4c0.3,0.4,2,2.6,2.5,3.2c0.5,0.7,1.6,1.9,1.6,1.9l0.5,1.3l-1.2,0.8
			c0,0-1.2-0.1-1.6-0.2c-0.4-0.1-0.7,0.3-0.7,0.3s-0.3-0.1-0.9-0.7c-0.6-0.6-0.2,0.1-1,0.5c-0.7,0.4,1,1,1.4,1.4
			c0.4,0.3,1,0.9,1.2,1.3c0.3,0.3,1-0.1,1-0.7c0-0.5,0.1-1,0.1-1h1.2l0.8-0.9l0.6-0.5l0.3-0.8l-0.5-1.3c0,0,0.8-0.3,1.2-0.3
			s0.7,1,0.7,1l0.3,0.1c0,0,0-0.8-0.2-1.1c-0.2-0.3-1.3-1.2-1.3-1.2s-1.2-0.5-1.6-0.8c-0.3-0.3-1.2-1.7-1.6-2.4
			c-0.4-0.8-0.1-0.8-0.2-1.2c-0.1-0.3-0.7-0.8-1-1.2c-0.3-0.5-0.2-1.2-0.2-1.2s0.6-0.4,1.3-0.8c0.2-0.1,0.3-0.3,0.4-0.3
			c0.3,0.3,1,1.1,1,1.6c0,0.6,0.3,1.3,0.4,1.7c0.1,0.4,0.9,0.8,2,1c1.1,0.2,0.8,0.9,0.8,0.9s1,1.2,1.2,2c0.1,0.8,0.1,1.2,0.2,2.2
			c0.1,1,0.6,1.2,0.9,2.1c0.3,0.9,0.5,0.9,0.7,1.7c0.1,0.3,0.2,0.7,0.3,1c-0.7,2.5-1.4,5-2.1,7.5c-0.6,0.6-1.1,2.7-1.1,2.7
			s-0.2,0.1-0.5,0.2l-1.4-0.3c-0.7-0.8-2.4-1.1-3.2-1.7c-0.9-0.6-0.9-1.9-1.6-2.4c-0.7-0.6-1.2-0.3-1.2-0.3s-2-0.4-2.4-0.9
			c-0.2-0.3-0.6-0.7-0.8-1c-0.3-0.3-0.4-0.5-0.4-0.5s0.2-0.2,0.4-0.4c0.3-0.3,0.7-0.5,0.9-0.6c0.5-0.1-0.2-1.1-0.8-2.1
			c-0.6-1,1.6-1.3,1.5-1.8c-0.1-0.5-1-0.5-1.6-0.8l0,0c-0.6-0.3-2,0-2,0l-1.9-0.4c0,0-0.6,0.2-1.1,0.4c-0.2,0.1-0.4,0-0.7-0.1
			c-0.4-0.2-0.9-0.6-1.1-1.1c-0.3-0.6-0.8-0.4-1.4-0.5c-0.3,0-0.5-0.1-0.8-0.2c-0.3-0.2-0.5-0.2-0.7-0.2c-0.4,0-0.8,0.2-1.3,0.3
			c-0.7,0.1-1.5,0.3-2.1,0.4c-0.1,0-0.2,0-0.3,0c-0.5,0-1.1,0.4-1.8,0.8c-0.7,0.4-0.9-1.1-0.9-1.1s-0.2,0-0.6-0.1
			c-0.4-0.1-1-0.2-1.8-0.5c-1.5-0.6-0.8-1.5-0.8-1.5s-0.3,0.2-0.8,0.7c-0.2,0.2-0.4,0.3-0.7,0.6c-1,0.9-1.3,1.3-2.2,1.2
			c-0.9-0.1-1.4,0.3-2,0.6c-0.6,0.3-1.8,2.4-1.9,2.7c-11.8-4-23.4-8.8-33.9-14.4c-0.4-0.3-1.2-0.7-2.1-1.2c-0.1-0.1-0.2-0.1-0.3-0.2
			c-0.1,0-0.2-0.1-0.3-0.2c-1.5-0.8-3.3-1.9-5.2-3.2c1.4-7.3,4-14.4,7.6-20.9c-0.1,0.1-0.1,0.2-0.2,0.2c-12.9,0.2-21.3,2.6-22.6,7.4
			c-2.9,11,33.5,30.3,81.4,43.1C101.4,117.4,106.7,118.7,111.9,119.9L111.9,119.9z M97.3,99.6c-0.3,0.1-0.3,0.9-0.3,0.9
			s0.3,0.3,0.6,0.4c0.2,0.1,0.5,0,0.8,0c0.2,0,0.3-0.1,0.6-0.2c0.7-0.2,0.3-0.5,0.4-1c0.1-0.5,0.1-1.1,0.4-1.5
			c0.3-0.5-0.5-0.8-0.5-0.8s-0.6,0.9-0.8,1.2l0,0.1C98.2,99,97.6,99.5,97.3,99.6L97.3,99.6z M98.4,96.1c0.3-0.1,1.1-0.3,1.3-0.7
			c0.2-0.5,0.1-0.3,0.3-0.9c0.2-0.6-0.5,0.2-0.5,0.2l-0.9,0.5l-0.2,0.5l-0.2,0.3C98.3,96.1,98.3,96.1,98.4,96.1L98.4,96.1z
			 M98.4,96.1"/>
	</g>
</g>
</svg>
