<?xml version="1.0" encoding="utf-8"?>
<!-- Generator: Adobe Illustrator 18.1.1, SVG Export Plug-In . SVG Version: 6.00 Build 0)  -->
<svg version="1.1" id="Layer_1" xmlns="http://www.w3.org/2000/svg" xmlns:xlink="http://www.w3.org/1999/xlink" x="0px" y="0px"
	 viewBox="0 0 200 200" enable-background="new 0 0 200 200" xml:space="preserve">
<g>
	<g>
		<defs>
			<rect id="SVGID_1_" x="6.5" y="0" width="185.7" height="199.8"/>
		</defs>
		<clipPath id="SVGID_2_">
			<use xlink:href="#SVGID_1_"  overflow="visible"/>
		</clipPath>
		<path clip-path="url(#SVGID_2_)" d="M167.8,53.6c0.4-1.8,0.7-3.7,0.7-5.6v-6c0-11.9-8.9-22.9-25.1-30.7
			c-15-7.3-34.8-11.3-55.9-11.3c-21,0-40.9,4-55.9,11.3C15.4,19.1,6.5,30.1,6.5,42v6c0,11.8,8.7,22.6,24.4,30.4
			c-0.4,1.8-0.7,4.1-0.7,5.6V85c-15.3,7.8-23.7,18.5-23.7,30v6c0,8.1,4.1,15.6,11.7,22.1c-1,2.8-1.6,5.6-1.6,8.5v6
			c0,11.9,8.9,22.9,25.1,30.7c15,7.3,34.8,11.3,55.9,11.3c21,0,40.9-4,55.9-11.3c16.2-7.9,25.1-18.8,25.1-30.7v-6
			c0-8.1-4.1-15.6-11.7-22.1c1-2.8,1.6-5.6,1.6-8.5V120c15.3-7.8,23.7-18.5,23.7-30.1v-6C192.2,72.2,183.5,61.4,167.8,53.6
			L167.8,53.6z M17.8,36.9c2.3-6,8.7-11.8,18.3-16.4C49.8,13.9,68,10.2,87.5,10.2c19.5,0,37.7,3.7,51.3,10.3
			c9.6,4.7,16,10.4,18.3,16.4c-8.3,14.4-37.1,24.9-69.7,24.9S26.1,51.3,17.8,36.9L17.8,36.9z M17.8,110c1.9-4.8,6.5-9.6,13.3-13.7
			c2.6,9.4,11,17.9,24.2,24.3c15,7.3,34.8,11.3,55.9,11.3c2.1,0,4.1-0.1,6.1-0.1c-9.2,2-19.3,3.1-29.8,3.1
			C54.9,134.9,26.1,124.4,17.8,110L17.8,110z M167.2,146.6c-8.3,14.4-37.1,24.9-69.7,24.9c-28.3,0-53.7-7.9-65.4-19.5
			c14.9,7.1,34.5,11,55.3,11c21,0,40.9-4,55.9-11.3c7.8-3.8,13.9-8.3,18.1-13.2C164.2,141.1,166.2,143.9,167.2,146.6L167.2,146.6z
			 M111.2,103.8c-28.5,0-54-8-65.5-19.6C58.1,88,72.5,90,87.5,90c21,0,40.9-4,55.9-11.3c9.1-4.4,15.9-9.8,20.1-15.8
			c9.1,4.6,15.1,10.2,17.4,16C172.6,93.3,143.8,103.8,111.2,103.8L111.2,103.8z M111.2,103.8"/>
	</g>
</g>
</svg>
