<?xml version="1.0" encoding="utf-8"?>
<!-- Generator: Adobe Illustrator 18.1.1, SVG Export Plug-In . SVG Version: 6.00 Build 0)  -->
<svg version="1.1" id="Layer_1" xmlns="http://www.w3.org/2000/svg" xmlns:xlink="http://www.w3.org/1999/xlink" x="0px" y="0px"
	 viewBox="0 0 200 200" enable-background="new 0 0 200 200" xml:space="preserve">
<g>
	<path d="M187.3,12.7H12.7c-6.9,0-12.5,5.6-12.5,12.5v112.2c0,6.9,5.6,12.5,12.5,12.5h62.3c-0.1,9-0.4,20.7-3.8,24.9H59.1
		c-3.4,0-6.2,2.8-6.2,6.3c0,3.4,2.7,6.2,6.2,6.2h81.8c3.4,0,6.2-2.8,6.2-6.2c0-3.5-2.7-6.3-6.2-6.3h-12.1
		c-3.4-4.2-3.8-15.9-3.8-24.9h62.3c6.9,0,12.5-5.6,12.5-12.5V25.2C199.8,18.3,194.2,12.7,187.3,12.7L187.3,12.7z M187.3,124.9H12.7
		V25.2h174.6V124.9z M187.3,124.9"/>
</g>
</svg>
