<?xml version="1.0" encoding="utf-8"?>
<!-- Generator: Adobe Illustrator 18.1.1, SVG Export Plug-In . SVG Version: 6.00 Build 0)  -->
<svg version="1.1" id="Layer_1" xmlns="http://www.w3.org/2000/svg" xmlns:xlink="http://www.w3.org/1999/xlink" x="0px" y="0px"
	 viewBox="0 0 200 200" enable-background="new 0 0 200 200" xml:space="preserve">
<g>
	<g>
		<path d="M197.6,106c-0.3,13.4-12.3-19.8-48.7-38.1c-36.3-18.5-67.7-3.1-61.1-6.8c5.3-3.2,39.7-24,69.6-14.4
			C187.9,54.7,198.4,93.8,197.6,106z"/>
		<path d="M174.8,68.9"/>
		<path d="M93.1,95.4"/>
	</g>
	<g>
		<path d="M119.3,199.4c-12.9,3.9,15-17.8,21.2-58.1c6.4-40.2-18-65.3-12.4-60.3c4.7,4.1,35,30.3,35.2,61.7
			C165.2,174.3,131.2,196.3,119.3,199.4z"/>
		<path d="M147.6,166.2"/>
		<path d="M97.1,96.7"/>
	</g>
	<g>
		<path d="M6.4,153.8c-7.7-11,21.6,8.8,61.8,2.2c40.2-6.4,56.6-37.3,53.5-30.4c-2.4,5.7-18,42.7-47.8,52.6
			C44.4,189.6,12.9,164.1,6.4,153.8z"/>
		<path d="M46.6,170.4"/>
		<path d="M97.1,100.9"/>
	</g>
	<g>
		<path d="M14.8,32.3c8.1-10.7-1.7,23.3,17,59.4c18.5,36.3,53,42.3,45.5,41.5c-6.2-0.6-46.2-3.9-64.8-29.3
			C-7.5,79.5,7,41.7,14.8,32.3z"/>
		<path d="M11.4,75.7"/>
		<path d="M93.1,102.2"/>
	</g>
	<g>
		<path d="M133,2.7c12.7,4.4-22.6,5.6-51.3,34.5c-28.8,28.8-23.8,63.4-25.4,56c-1.4-6.1-10.5-45.1,7.8-70.6
			C81.2-3.9,121.6-1.8,133,2.7z"/>
		<path d="M95.8,34.5"/>
		<path d="M95.8,120.3"/>
	</g>
</g>
</svg>
